<svg xmlns="http://www.w3.org/2000/svg" version="1.1" xmlns:xlink="http://www.w3.org/1999/xlink" xmlns:svgjs="http://svgjs.com/svgjs" width="1440" height="560" preserveAspectRatio="none" viewBox="0 0 1440 560"><g mask="url(&quot;#SvgjsMask1060&quot;)" fill="none"><rect width="1440" height="560" x="0" y="0" fill="rgba(24, 49, 83, 0.8)"></rect><path d="M1348.4674799388288 192.78701735011617L1309.384150889834 269.4923695317879 1386.0895030715058 308.57569858078267 1425.1728321205005 231.87034639911093z" fill="rgba(255, 212, 1, 1)" class="triangle-float1"></path><path d="M1019.948,527.547C1037.732,527.654,1053.542,516.976,1062.404,501.557C1071.234,486.193,1072.486,467.172,1063.388,451.965C1054.508,437.123,1037.211,429.522,1019.948,430.596C1004.351,431.566,992.902,443.387,984.96,456.845C976.844,470.597,971.288,486.739,978.37,501.05C986.182,516.837,1002.334,527.441,1019.948,527.547" fill="rgba(255, 212, 1, 1)" class="triangle-float2"></path><path d="M1378.1498472640023 100.00637123886898L1233.5032507257388 29.286789096318344 1240.8693893170148 169.84108641720644z" fill="rgba(255, 212, 1, 1)" class="triangle-float3"></path><path d="M962.071,178.535C996.217,178.896,1027.259,159.965,1044.805,130.67C1062.875,100.501,1068.768,61.854,1049.626,32.353C1031.678,4.693,995.042,2.825,962.071,3.166C929.93,3.499,894.814,6.988,877.601,34.134C859.438,62.778,865.185,99.677,882.311,128.953C899.253,157.915,928.52,178.18,962.071,178.535" fill="rgba(255, 212, 1, 1)" class="triangle-float3"></path><path d="M1340.307,154.733C1380.567,157.395,1423.07,142.178,1442.6,106.871C1461.675,72.386,1447.215,31.593,1427.2,-2.355C1407.589,-35.618,1378.884,-64.944,1340.307,-66.631C1299.036,-68.435,1257.758,-47.47,1239.176,-10.575C1221.954,23.62,1239.053,62.076,1259.033,94.736C1277.867,125.523,1304.295,152.352,1340.307,154.733" fill="rgba(255, 212, 1, 1)" class="triangle-float1"></path><path d="M1334.724448301705 230.3249102317559L1172.992205164941 247.16783254454103 1254.5226546789975 363.6053815068292z" fill="rgba(255, 212, 1, 1)" class="triangle-float3"></path><path d="M148.729,126.677C164.66,127.352,179.786,118.473,187.456,104.494C194.865,90.991,192.489,74.651,184.499,61.484C176.829,48.844,163.497,41.38,148.729,40.673C132.471,39.895,114.336,43.488,106.49,57.749C98.815,71.699,106.981,87.86,115.3,101.436C123.119,114.196,133.777,126.043,148.729,126.677" fill="rgba(255, 212, 1, 1)" class="triangle-float3"></path><path d="M426.4641129779052 442.50917067684713L312.20915362633787 405.38548399123283 275.08546694072356 519.6404433428002 389.3404262922909 556.7641300284145z" fill="rgba(255, 212, 1, 1)" class="triangle-float2"></path></g><defs><mask id="SvgjsMask1060"><rect width="1440" height="560" fill="#ffffff"></rect></mask><style>
            @keyframes float1 {
                0%{transform: translate(0, 0)}
                50%{transform: translate(-10px, 0)}
                100%{transform: translate(0, 0)}
            }

            .triangle-float1 {
                animation: float1 5s infinite;
            }

            @keyframes float2 {
                0%{transform: translate(0, 0)}
                50%{transform: translate(-5px, -5px)}
                100%{transform: translate(0, 0)}
            }

            .triangle-float2 {
                animation: float2 4s infinite;
            }

            @keyframes float3 {
                0%{transform: translate(0, 0)}
                50%{transform: translate(0, -10px)}
                100%{transform: translate(0, 0)}
            }

            .triangle-float3 {
                animation: float3 6s infinite;
            }
        </style></defs></svg>