<svg xmlns="http://www.w3.org/2000/svg" version="1.1" xmlns:xlink="http://www.w3.org/1999/xlink" xmlns:svgjs="http://svgjs.com/svgjs" width="1440" height="560" preserveAspectRatio="none" viewBox="0 0 1440 560"><g mask="url(&quot;#SvgjsMask1005&quot;)" fill="none"><rect width="1440" height="560" x="0" y="0" fill="url(#SvgjsLinearGradient1006)"></rect><path d="M523.23 635.67C679.39 620.39 782.45 289.14 1046.32 288.83 1310.18 288.52 1428.79 492.3 1569.4 496.03" stroke="rgba(255, 212, 1, 1)" stroke-width="2"></path><path d="M591.08 634.14C680.37 628.31 644.99 469.8 903.28 459.14 1161.58 448.48 1358.37 201.25 1527.69 195.94" stroke="rgba(255, 212, 1, 1)" stroke-width="2"></path><path d="M796.72 595.32C898.38 571.19 868.02 299.08 1091.21 298.74 1314.4 298.4 1527.08 465.11 1680.19 466.74" stroke="rgba(255, 212, 1, 1)" stroke-width="2"></path><path d="M750.27 569.13C864.84 569.11 967.09 543.14 1207.6 539.39 1448.11 535.64 1532.67 280.3 1664.93 270.59" stroke="rgba(255, 212, 1, 1)" stroke-width="2"></path><path d="M634.59 619.36C757.81 606.91 838.18 343.2 1045.69 342.93 1253.21 342.66 1346.33 502.42 1456.8 505.33" stroke="rgba(255, 212, 1, 1)" stroke-width="2"></path></g><defs><mask id="SvgjsMask1005"><rect width="1440" height="560" fill="#ffffff"></rect></mask><linearGradient x1="15.28%" y1="-39.29%" x2="84.72%" y2="139.29%" gradientUnits="userSpaceOnUse" id="SvgjsLinearGradient1006"><stop stop-color="#0e1a40" offset="0"></stop><stop stop-color="#00459e" offset="1"></stop></linearGradient></defs></svg>